<?xml version="1.0" encoding="UTF-8" standalone="no"?>
<svg
   height="48"
   viewBox="0 96 960 960"
   width="48"
   version="1.1"
   id="svg4"
   sodipodi:docname="circle_checked_fill.svg"
   inkscape:version="1.2 (dc2aedaf03, 2022-05-15)"
   inkscape:export-filename="..\PNG\check_circle_filled.png"
   inkscape:export-xdpi="96"
   inkscape:export-ydpi="96"
   xmlns:inkscape="http://www.inkscape.org/namespaces/inkscape"
   xmlns:sodipodi="http://sodipodi.sourceforge.net/DTD/sodipodi-0.dtd"
   xmlns="http://www.w3.org/2000/svg"
   xmlns:svg="http://www.w3.org/2000/svg">
  <defs
     id="defs8" />
  <sodipodi:namedview
     id="namedview6"
     pagecolor="#ffffff"
     bordercolor="#666666"
     borderopacity="1.0"
     inkscape:showpageshadow="2"
     inkscape:pageopacity="0.0"
     inkscape:pagecheckerboard="0"
     inkscape:deskcolor="#d1d1d1"
     showgrid="false"
     inkscape:zoom="7.5645694"
     inkscape:cx="17.119282"
     inkscape:cy="34.701248"
     inkscape:window-width="2560"
     inkscape:window-height="1377"
     inkscape:window-x="-8"
     inkscape:window-y="-8"
     inkscape:window-maximized="1"
     inkscape:current-layer="svg4" />
  <g
     inkscape:groupmode="layer"
     id="layer1"
     inkscape:label="Layer 1">
    <rect
       style="fill:#069116;stroke-width:68.107;stroke-miterlimit:0;stroke-dashoffset:0.8406;paint-order:markers stroke fill;stop-color:#000000;fill-opacity:1"
       id="rect346"
       width="549.93219"
       height="462.68329"
       x="206.22455"
       y="363.03436"
       rx="156.96939"
       ry="50.551643" />
  </g>
  <g
     inkscape:groupmode="layer"
     id="layer2"
     inkscape:label="Layer 2">
    <path
       d="m419 773 294-294-66-66-228 228-111-111-65 66 176 177Zm61.138 228q-88.138 0-165.625-33.084-77.488-33.083-135.417-91.012T88.084 741.625Q55 664.276 55 576.138 55 487 88.084 409.513q33.083-77.488 90.855-134.969 57.772-57.482 135.195-91.013Q391.557 150 479.779 150q89.221 0 166.827 33.454 77.605 33.453 135.012 90.802 57.407 57.349 90.895 134.877Q906 486.66 906 576q0 88.276-33.531 165.747-33.531 77.471-91.013 135.278-57.481 57.808-134.831 90.891Q569.276 1001 480.138 1001Z"
       id="path2" />
  </g>
</svg>
